<svg width="31" height="28" viewBox="0 0 31 28" fill="none" xmlns="http://www.w3.org/2000/svg">
<path d="M18.1445 3.5C18.489 3.50006 18.7665 3.76167 18.7666 4.08496C18.7666 4.40623 18.4891 4.66987 18.1445 4.66992H6.88086C5.84493 4.66992 5.00712 5.45024 5.00684 6.41602V17.4971H11.8906C12.2373 17.4971 12.5124 17.761 12.5127 18.082C12.5127 19.0501 13.3506 19.8379 14.3867 19.8379H15.6396C16.6756 19.8377 17.5225 19.05 17.5225 18.082C17.5227 17.761 17.7978 17.4971 18.1445 17.4971H25.0293V11.0791C25.0294 10.7579 25.3059 10.503 25.6504 10.5029C25.9972 10.5029 26.2812 10.7579 26.2812 11.0791V21.584C26.2812 23.1946 24.8731 24.5009 23.1455 24.501H6.88086C5.15328 24.501 3.75391 23.1946 3.75391 21.584V6.41602C3.75419 4.80554 5.15345 3.5 6.88086 3.5H18.1445ZM5.00586 18.667V21.583C5.00586 22.5495 5.84278 23.3291 6.87988 23.3291H23.1533C24.1884 23.3291 25.0283 22.5495 25.0283 21.583V18.667H18.71C18.4195 19.9982 17.152 20.9979 15.6387 20.998H14.3857C12.8743 20.998 11.6137 19.9982 11.3232 18.667H5.00586ZM23.1484 3.5C23.4936 3.50021 23.7792 3.76315 23.7793 4.08496V5.83105H25.6533C25.9985 5.83116 26.2741 6.09429 26.2744 6.41602C26.2744 6.73795 25.9986 7.00185 25.6533 7.00195H23.7793V8.74805C23.7792 9.06984 23.4936 9.3328 23.1484 9.33301C22.8031 9.33301 22.5265 9.06996 22.5264 8.74805V7.00195H20.6426C20.2973 7.00177 20.0215 6.7379 20.0215 6.41602C20.0217 6.09434 20.2975 5.83124 20.6426 5.83105H22.5264V4.08496C22.5265 3.76303 22.8031 3.5 23.1484 3.5Z" fill="#646464"/>
</svg>
