<svg width="31" height="28" viewBox="0 0 31 28" fill="none" xmlns="http://www.w3.org/2000/svg">
<path d="M20.9053 4.66699C22.656 4.66705 24.0739 5.97081 24.0742 7.58301V21.5801C24.0741 23.1924 22.6561 24.497 20.9053 24.4971H9.50488C7.754 24.497 6.33605 23.1924 6.33594 21.5801V7.58301C6.33621 5.97079 7.7541 4.66701 9.50488 4.66699C9.85437 4.66699 10.1387 4.92577 10.1387 5.24707C10.1386 5.57029 9.85431 5.83496 9.50488 5.83496C8.45485 5.83498 7.60379 6.61537 7.60352 7.58301V21.5801C7.60363 22.5478 8.45474 23.3359 9.50488 23.3359H20.9053C21.9554 23.3359 22.8065 22.5478 22.8066 21.5801V7.58301C22.8064 6.61539 21.9553 5.83501 20.9053 5.83496C20.5558 5.83496 20.2716 5.57029 20.2715 5.24707C20.2715 4.92577 20.5558 4.66699 20.9053 4.66699ZM17.1084 3.5C18.1584 3.50001 19.0098 4.28256 19.0098 5.24902C19.0095 5.57104 18.7255 5.83689 18.376 5.83691C18.0257 5.83691 17.7424 5.57105 17.7422 5.24902C17.7422 4.9268 17.4581 4.66797 17.1084 4.66797H13.3057C12.956 4.66802 12.6719 4.92682 12.6719 5.24902C12.6716 5.57105 12.3884 5.83691 12.0381 5.83691C11.6886 5.83685 11.4046 5.57101 11.4043 5.24902C11.4043 4.28259 12.2557 3.50005 13.3057 3.5H17.1084Z" fill="#646464"/>
<path fill-rule="evenodd" clip-rule="evenodd" d="M10.7713 11.6667C10.4215 11.6667 10.1377 11.4054 10.1377 11.0833C10.1377 10.7612 10.4215 10.5 10.7713 10.5H19.6414C19.9912 10.5 20.275 10.7612 20.275 11.0833C20.275 11.4054 19.9912 11.6667 19.6414 11.6667H10.7713Z" fill="#646464"/>
<path d="M10.7715 15.1683H19.6443C19.994 15.1683 20.278 14.9024 20.278 14.5803C20.278 14.2582 19.994 14 19.6443 14H10.7715C10.4217 14 10.1377 14.2582 10.1377 14.5803C10.1377 14.9024 10.4217 15.1683 10.7715 15.1683Z" fill="#646464"/>
<path fill-rule="evenodd" clip-rule="evenodd" d="M10.771 18.6667C10.4213 18.6667 10.1377 18.4054 10.1377 18.0833C10.1377 17.7612 10.4213 17.5 10.771 17.5H17.1074C17.4571 17.5 17.7407 17.7612 17.7407 18.0833C17.7407 18.4054 17.4571 18.6667 17.1074 18.6667H10.771Z" fill="#646464"/>
</svg>
