<svg width="31" height="28" viewBox="0 0 31 28" fill="none" xmlns="http://www.w3.org/2000/svg">
<path fill-rule="evenodd" clip-rule="evenodd" d="M14.6183 3.6318C14.8503 3.45567 15.1853 3.45549 15.4172 3.6318L26.0509 11.7978C26.3165 12.0035 26.3589 12.3723 26.1408 12.6201C25.9201 12.8699 25.5267 12.9076 25.2609 12.7021L25.0246 12.5312V21.584C25.0246 23.1946 23.6309 24.5018 21.9035 24.5019H18.1467C17.7998 24.5019 17.5188 24.2383 17.5187 23.915V16.915C17.5187 16.5916 17.2386 16.3359 16.8918 16.3359H13.1427C12.7961 16.3361 12.5158 16.5917 12.5158 16.915V23.915C12.5157 24.2383 12.2347 24.5019 11.8879 24.5019H8.132C6.40442 24.5019 5.01091 23.1947 5.01091 21.584V12.5312L4.77458 12.7021C4.50881 12.9079 4.11543 12.87 3.8947 12.6201C3.67632 12.3724 3.71811 12.0036 3.98357 11.7978L14.6183 3.6318ZM6.24626 11.5742C6.24626 11.6041 6.25337 11.666 6.25407 11.6718V21.5898C6.2543 22.5549 7.09312 23.333 8.12907 23.333H11.258V16.9199C11.2581 15.9548 12.0943 15.168 13.132 15.1679H16.8888C17.9266 15.168 18.7627 15.9548 18.7629 16.9199V23.333H21.8918C22.9277 23.333 23.7665 22.5549 23.7668 21.5898V11.6718C23.7675 11.666 23.7746 11.6041 23.7746 11.5742L15.0148 4.84372L6.24626 11.5742Z" fill="#646464"/>
</svg>
