<svg width="31" height="28" viewBox="0 0 31 28" fill="none" xmlns="http://www.w3.org/2000/svg">
<path d="M20.6475 2.33331C20.992 2.33331 21.2694 2.59093 21.2695 2.91241V3.50031H23.1523C24.8799 3.50033 26.2793 4.80424 26.2793 6.41437V21.595C26.2793 23.2052 24.8799 24.5091 23.1523 24.5091H6.88086C5.15328 24.5091 3.75391 23.2052 3.75391 21.595V6.41437C3.75391 4.80422 5.15328 3.50031 6.88086 3.50031H8.75488V2.91241C8.75501 2.59105 9.0404 2.3335 9.38477 2.33331C9.7293 2.33331 10.0067 2.59093 10.0068 2.91241V3.50031H20.0176V2.91241C20.0177 2.59098 20.303 2.3334 20.6475 2.33331ZM5.00586 21.5921C5.00587 22.5593 5.8428 23.347 6.87988 23.347H23.1514C24.1885 23.347 25.0254 22.5593 25.0254 21.5921V10.5003H5.00586V21.5921ZM17.7031 13.0032C17.9478 12.7762 18.3442 12.7761 18.5889 13.0032C18.8329 13.2315 18.8329 13.6022 18.5889 13.8304L15.9053 16.3343L18.5889 18.8392C18.8328 19.0674 18.8327 19.4371 18.5889 19.6653C18.3441 19.8928 17.9479 19.8928 17.7031 19.6653L15.0195 17.1614L12.3271 19.6653C12.0824 19.8928 11.695 19.8928 11.4502 19.6653C11.2062 19.4371 11.2062 19.0674 11.4502 18.8392L14.1338 16.3343L11.4502 13.8304C11.2062 13.6022 11.2062 13.2315 11.4502 13.0032C11.6949 12.7763 12.0825 12.7762 12.3271 13.0032L15.0195 15.5081L17.7031 13.0032ZM6.87988 4.66632C5.84279 4.66632 5.00586 5.44693 5.00586 6.41339V9.33527H25.0254V6.41339C25.0254 5.44693 24.1885 4.66632 23.1514 4.66632H21.2686V5.2464C21.2683 5.56818 20.9927 5.83331 20.6465 5.83331C20.3025 5.8331 20.0257 5.56805 20.0254 5.2464V4.66632H10.0146V5.2464C10.0144 5.56808 9.7308 5.83314 9.38477 5.83331C9.04057 5.83331 8.76297 5.56818 8.7627 5.2464V4.66632H6.87988Z" fill="#646464"/>
</svg>
