<svg width="26" height="28" viewBox="0 0 26 28" fill="none" xmlns="http://www.w3.org/2000/svg">
<path d="M12.2695 4.66663C13.5008 4.66663 14.5029 5.70969 14.5029 6.99768C14.5032 7.64146 14.9958 8.17053 15.6113 8.17053H21.7471C23.2862 8.17056 24.5341 9.4707 24.5342 11.0797V20.4186C24.5341 22.0276 23.2862 23.3355 21.7471 23.3356H5.01758C3.4785 23.3356 2.23056 22.0276 2.23047 20.4186V7.58362C2.23063 5.9747 3.47854 4.66663 5.01758 4.66663H12.2695ZM5.0166 5.83362C4.09312 5.83362 3.3457 6.62027 3.3457 7.58557V20.4196C3.3457 21.3849 4.09312 22.1637 5.0166 22.1637H21.7461C22.6696 22.1637 23.4248 21.3849 23.4248 20.4196V11.0817C23.4248 10.1164 22.6696 9.33755 21.7461 9.33752H15.6182C14.3855 9.33752 13.3858 8.28734 13.3857 6.99866C13.3857 6.35512 12.8849 5.83362 12.2686 5.83362H5.0166Z" fill="#646464"/>
</svg>
