<svg width="31" height="28" viewBox="0 0 31 28" fill="none" xmlns="http://www.w3.org/2000/svg">
<path d="M15.0166 3.5C21.2376 3.50011 26.2793 8.19808 26.2793 13.9961C26.2791 19.7939 21.2375 24.4999 15.0166 24.5C13.3994 24.5 11.8321 24.1782 10.3906 23.5713L4.48633 24.4912C3.99096 24.5687 3.60422 24.0979 3.81348 23.6738L5.67969 19.8652C4.43419 18.1475 3.75398 16.1169 3.75391 13.9961C3.75391 8.19801 8.79777 3.5 15.0166 3.5ZM15.0156 4.66699C9.48779 4.66701 5.00586 8.85007 5.00586 14.0039C5.00589 15.9956 5.68001 17.8857 6.90527 19.4648C7.03734 19.6347 7.05692 19.8624 6.96484 20.0527L5.44043 23.1621L10.373 22.3955C10.3841 22.3955 10.6258 22.3952 10.7393 22.4463C12.0646 23.0305 13.5161 23.332 15.0156 23.332C20.5434 23.332 25.0253 19.1577 25.0254 14.0039C25.0254 8.85006 20.5434 4.66699 15.0156 4.66699Z" fill="#646464"/>
</svg>
