<svg width="31" height="28" viewBox="0 0 31 28" fill="none" xmlns="http://www.w3.org/2000/svg">
<path d="M15.6406 2.33337C22.8959 2.33337 28.7792 7.82 28.7793 14.5844C28.7793 21.3488 22.896 26.8353 15.6406 26.8353C8.38543 26.8352 2.50293 21.3487 2.50293 14.5844C2.50303 7.8201 8.38549 2.33352 15.6406 2.33337ZM15.6396 3.50037C9.07545 3.50037 3.75415 8.46044 3.75391 14.5804C3.75391 20.7006 9.0753 25.6713 15.6396 25.6713C22.2038 25.671 27.5244 20.7005 27.5244 14.5804C27.5242 8.46058 22.2036 3.5006 15.6396 3.50037ZM16.2686 17.5004V18.6703H15.0166V17.5004H16.2686ZM15.6377 9.33337C15.9832 9.33337 16.2685 9.59638 16.2686 9.91833V14.5814C16.2684 14.9033 15.9831 15.1664 15.6377 15.1664C15.2923 15.1663 15.0167 14.9033 15.0166 14.5814V9.91833C15.0167 9.59642 15.2923 9.33345 15.6377 9.33337Z" fill="#646464"/>
</svg>
