<svg width="31" height="28" viewBox="0 0 31 28" fill="none" xmlns="http://www.w3.org/2000/svg">
<path d="M17.5186 7.00037C20.974 7.00044 23.7712 9.61371 23.7715 12.8353C23.7715 14.702 22.8327 16.3604 21.3691 17.4281L25.6973 19.2679C26.8143 19.7402 27.5283 20.775 27.5283 21.9174V22.7523C27.5282 24.3612 26.128 25.6652 24.4023 25.6654H10.6348C8.90701 25.6654 7.50788 24.3613 7.50781 22.7523V21.9174C7.50781 20.775 8.22272 19.7402 9.33984 19.2679L13.668 17.4281C12.2044 16.3604 11.2656 14.702 11.2656 12.8353C11.2659 9.61366 14.063 7.00037 17.5186 7.00037ZM20.0732 18.1654C19.2955 18.4897 18.4267 18.6673 17.5176 18.6674C16.6084 18.6674 15.7475 18.4897 14.9697 18.1654L9.8584 20.3285C9.18921 20.6123 8.75977 21.2368 8.75977 21.9222V22.7484C8.75977 23.7145 9.59849 24.5032 10.6338 24.5033H24.4014C25.4366 24.5031 26.2754 23.7144 26.2754 22.7484V21.9222C26.2754 21.2369 25.8458 20.6123 25.1768 20.3285L20.0732 18.1654ZM12.5127 2.33337C14.6107 2.33337 16.5286 3.30238 17.6846 4.88904C17.8788 5.15597 17.8083 5.51755 17.5225 5.69861C17.2366 5.87965 16.8476 5.81032 16.6533 5.54529C15.7267 4.27409 14.1917 3.50037 12.5127 3.50037C9.74975 3.50056 7.50391 5.59157 7.50391 8.16931C7.50399 9.81556 8.42621 11.3138 9.90625 12.1556C10.2014 12.3236 10.2996 12.6811 10.1191 12.9574C10.0519 13.0598 9.95503 13.1315 9.84668 13.1781L4.76953 15.6146C4.14565 15.9152 3.75488 16.519 3.75488 17.1742V18.0853C3.75488 19.0504 4.59314 19.8324 5.62988 19.8324C5.97512 19.8326 6.2507 20.0967 6.25098 20.4193C6.25098 20.7403 5.97529 20.9992 5.62988 20.9994C3.90351 20.9994 2.50293 19.6944 2.50293 18.0853V17.1742C2.50293 16.0822 3.15698 15.0846 4.19824 14.5844L8.39844 12.5648C7.05746 11.4747 6.25105 9.88655 6.25098 8.16931C6.25098 4.94758 9.05859 2.33357 12.5127 2.33337ZM17.5225 8.16638C14.7587 8.16651 12.5137 10.2585 12.5137 12.8353C12.5137 15.4122 14.7587 17.5041 17.5225 17.5043C20.2864 17.5043 22.5234 15.4122 22.5234 12.8353C22.5234 10.2584 20.2864 8.16638 17.5225 8.16638Z" fill="#646464"/>
</svg>
