<svg width="18" height="19" viewBox="0 0 18 19" fill="none" xmlns="http://www.w3.org/2000/svg">
<path fill-rule="evenodd" clip-rule="evenodd" d="M9 1.58334C13.1415 1.58334 16.5 5.12843 16.5 9.50001C16.5 13.8716 13.1415 17.4167 9 17.4167C4.8585 17.4167 1.5 13.8716 1.5 9.50001C1.5 5.12843 4.8585 1.58334 9 1.58334ZM9.00007 2.37501C9.81157 2.37501 10.6033 3.98368 10.9951 6.33334H6.99757C7.38933 3.98368 8.18857 2.37501 9.00007 2.37501ZM7.52242 2.54918C6.93824 3.38813 6.49387 4.72167 6.23992 6.33334H2.95492C3.84742 4.43824 5.51638 3.02258 7.52242 2.54918ZM10.4773 2.54918C12.4833 3.02258 14.1523 4.43824 15.0448 6.33334H11.7598C11.5058 4.72167 11.0614 3.38813 10.4773 2.54918ZM6.1275 7.12501C6.04336 7.87503 6 8.67303 6 9.50001C6 10.327 6.04336 11.125 6.1275 11.875H2.6325C2.38395 11.1321 2.25 10.3327 2.25 9.50001C2.25 8.66734 2.38395 7.86791 2.6325 7.12501H6.1275ZM11.115 7.12501C11.2036 7.86743 11.25 8.66638 11.25 9.50001C11.25 10.3336 11.2036 11.1326 11.115 11.875H6.885C6.79635 11.1326 6.75 10.3336 6.75 9.50001C6.75 8.66638 6.79635 7.86743 6.885 7.12501H11.115ZM15.3676 7.12501C15.6161 7.86791 15.7501 8.66734 15.7501 9.50001C15.7501 10.3327 15.6161 11.1321 15.3676 11.875H11.8726C11.9567 11.125 12.0001 10.327 12.0001 9.50001C12.0001 8.67303 11.9567 7.87503 11.8726 7.12501H15.3676ZM2.95492 12.6667H6.23992C6.49387 14.2784 6.93824 15.6119 7.52242 16.4508C5.51638 15.9774 3.84742 14.5618 2.95492 12.6667ZM6.99757 12.6667H10.9951C10.6033 15.0163 9.81157 16.625 9.00007 16.625C8.18857 16.625 7.38933 15.0163 6.99757 12.6667ZM15.0448 12.6667C14.1523 14.5618 12.4833 15.9774 10.4773 16.4508C11.0614 15.6119 11.5058 14.2784 11.7598 12.6667H15.0448Z" fill="white"/>
</svg>
